<svg width="3365" height="1000" viewBox="0 0 3365 1000" fill="none" xmlns="http://www.w3.org/2000/svg">
<g clip-path="url(#clip0_2_14)">
<path d="M1379.83 743.554C1342.32 743.554 1311.65 728.328 1287.81 697.876C1263.98 666.983 1252.07 627.484 1252.07 579.378C1252.07 529.949 1264.42 489.788 1289.14 458.894C1313.85 427.56 1345.63 411.892 1384.47 411.892C1411.39 411.892 1438.31 422.043 1465.23 442.344C1470.08 445.875 1474.06 446.978 1477.15 445.654C1480.24 444.33 1481.78 440.8 1481.78 435.062V323.846C1481.78 295.601 1467.44 276.624 1438.75 266.914C1434.78 266.032 1432.79 263.384 1432.79 258.97C1432.79 254.116 1435.88 251.247 1442.06 250.364C1468.54 248.599 1497.67 243.524 1529.44 235.138C1533.42 234.256 1536.73 234.918 1539.37 237.124C1542.46 239.331 1544.01 242.2 1544.01 245.73V667.424C1544.01 679.782 1546.44 688.608 1551.29 693.904C1556.14 698.759 1567.62 704.055 1585.71 709.792C1589.69 711.116 1591.67 713.985 1591.67 718.398C1591.67 723.253 1589.02 726.342 1583.73 727.666L1495.02 741.568C1487.08 742.451 1483.1 739.141 1483.1 731.638V709.13C1483.1 705.158 1482.44 702.069 1481.12 699.862C1479.79 697.656 1478.03 696.773 1475.82 697.214C1473.17 697.214 1469.42 699.642 1464.57 704.496C1439.85 730.535 1411.61 743.554 1379.83 743.554ZM1401.68 701.848C1421.1 701.848 1439.19 693.022 1455.96 675.368C1473.17 657.715 1481.78 638.958 1481.78 619.098V572.758C1481.78 541.424 1471.85 512.516 1451.99 486.036C1432.13 459.115 1410.5 445.654 1387.11 445.654C1365.05 445.654 1347.84 455.805 1335.48 476.106C1323.12 495.966 1316.94 523.77 1316.94 559.518C1316.94 600.121 1324.89 634.104 1340.77 661.466C1357.1 688.388 1377.4 701.848 1401.68 701.848ZM1630.97 736.934C1623.02 736.934 1619.05 733.183 1619.05 725.68C1619.05 719.06 1622.58 715.088 1629.64 713.764C1644.21 711.999 1653.92 706.262 1658.77 696.552C1664.07 686.843 1666.72 669.19 1666.72 643.592V531.714C1666.72 505.676 1664.07 487.802 1658.77 478.092C1653.92 467.942 1642.88 459.115 1625.67 451.612C1620.38 448.964 1617.73 444.992 1617.73 439.696C1617.73 434.4 1621.04 431.311 1627.66 430.428C1658.99 427.78 1688.12 422.484 1715.04 414.54C1723.43 412.334 1727.62 415.644 1727.62 424.47V458.894C1727.62 464.19 1728.94 467.5 1731.59 468.824C1734.24 469.707 1737.55 467.942 1741.52 463.528C1771.97 429.104 1804.19 411.892 1838.17 411.892C1863.77 411.892 1884.51 420.498 1900.4 437.71C1916.29 454.481 1924.23 476.548 1924.23 503.91V643.592C1924.23 669.19 1926.66 686.843 1931.52 696.552C1936.37 706.262 1946.08 711.999 1960.64 713.764C1968.15 715.088 1971.9 719.06 1971.9 725.68C1971.9 733.183 1967.71 736.934 1959.32 736.934H1826.26C1818.31 736.934 1814.34 733.183 1814.34 725.68C1814.34 719.06 1817.87 715.088 1824.93 713.764C1839.5 711.999 1849.21 706.262 1854.06 696.552C1858.92 686.843 1861.34 669.19 1861.34 643.592L1862.01 538.996C1862.01 489.567 1843.69 464.852 1807.06 464.852C1789.41 464.852 1771.97 473.017 1754.76 489.346C1737.55 505.676 1728.94 522.005 1728.94 538.334V643.592C1728.94 669.19 1731.37 686.843 1736.23 696.552C1741.08 706.262 1750.79 711.999 1765.35 713.764C1772.42 715.088 1775.95 719.06 1775.95 725.68C1775.95 733.183 1771.97 736.934 1764.03 736.934H1630.97ZM2126.52 743.554C2089.01 743.554 2058.34 728.328 2034.5 697.876C2010.67 666.983 1998.76 627.484 1998.76 579.378C1998.76 529.949 2011.11 489.788 2035.83 458.894C2060.54 427.56 2092.32 411.892 2131.16 411.892C2158.08 411.892 2185 422.043 2211.92 442.344C2216.77 445.875 2220.75 446.978 2223.84 445.654C2226.92 444.33 2228.47 440.8 2228.47 435.062V323.846C2228.47 295.601 2214.13 276.624 2185.44 266.914C2181.47 266.032 2179.48 263.384 2179.48 258.97C2179.48 254.116 2182.57 251.247 2188.75 250.364C2215.23 248.599 2244.36 243.524 2276.13 235.138C2280.11 234.256 2283.42 234.918 2286.06 237.124C2289.15 239.331 2290.7 242.2 2290.7 245.73V667.424C2290.7 679.782 2293.12 688.608 2297.98 693.904C2302.83 698.759 2314.31 704.055 2332.4 709.792C2336.38 711.116 2338.36 713.985 2338.36 718.398C2338.36 723.253 2335.71 726.342 2330.42 727.666L2241.71 741.568C2233.77 742.451 2229.79 739.141 2229.79 731.638V709.13C2229.79 705.158 2229.13 702.069 2227.81 699.862C2226.48 697.656 2224.72 696.773 2222.51 697.214C2219.86 697.214 2216.11 699.642 2211.26 704.496C2186.54 730.535 2158.3 743.554 2126.52 743.554ZM2148.37 701.848C2167.79 701.848 2185.88 693.022 2202.65 675.368C2219.86 657.715 2228.47 638.958 2228.47 619.098V572.758C2228.47 541.424 2218.54 512.516 2198.68 486.036C2178.82 459.115 2157.19 445.654 2133.8 445.654C2111.74 445.654 2094.52 455.805 2082.17 476.106C2069.81 495.966 2063.63 523.77 2063.63 559.518C2063.63 600.121 2071.58 634.104 2087.46 661.466C2103.79 688.388 2124.09 701.848 2148.37 701.848ZM2385.16 585.336C2377.65 585.336 2373.9 580.482 2373.9 570.772V549.588C2373.9 539.879 2377.65 535.024 2385.16 535.024H2550.66C2558.16 535.024 2561.91 539.879 2561.91 549.588V570.772C2561.91 580.482 2558.16 585.336 2550.66 585.336H2385.16ZM2613.62 736.934C2605.68 736.934 2601.71 733.183 2601.71 725.68C2601.71 719.06 2605.24 715.088 2612.3 713.764C2626.86 711.999 2636.57 706.262 2641.43 696.552C2646.72 686.843 2649.37 669.19 2649.37 643.592V352.312C2649.37 324.95 2646.72 306.193 2641.43 296.042C2636.13 285.892 2625.1 277.506 2608.33 270.886C2603.03 268.238 2600.38 264.487 2600.38 259.632C2600.38 254.336 2603.69 251.247 2610.31 250.364C2642.97 247.716 2672.54 242.42 2699.02 234.476C2707.41 232.27 2711.6 235.359 2711.6 243.744V546.94C2711.6 552.678 2713.14 556.429 2716.23 558.194C2719.32 559.518 2723.3 558.415 2728.15 554.884L2802.29 493.98C2816.42 482.506 2823.48 472.355 2823.48 463.528C2823.48 455.584 2818.18 448.744 2807.59 443.006C2802.29 439.917 2799.65 435.724 2799.65 430.428C2799.65 423.367 2803.18 419.836 2810.24 419.836H2916.16C2923.66 419.836 2927.41 423.146 2927.41 429.766C2927.41 435.062 2924.98 439.255 2920.13 442.344C2896.74 455.584 2871.14 474.341 2843.34 498.614L2783.76 548.926C2777.14 554.664 2776.48 561.063 2781.77 568.124L2875.78 676.03C2891.22 693.684 2907.77 706.262 2925.43 713.764C2931.6 715.53 2934.69 719.943 2934.69 727.004C2934.69 733.624 2930.5 736.934 2922.12 736.934H2856.58C2849.52 736.934 2843.56 734.286 2838.7 728.99L2732.78 605.196C2729.25 601.224 2725.28 599.238 2720.87 599.238C2714.69 599.238 2711.6 603.652 2711.6 612.478V643.592C2711.6 669.19 2714.03 686.843 2718.88 696.552C2724.18 706.262 2734.11 711.999 2748.67 713.764C2755.73 715.088 2759.26 719.06 2759.26 725.68C2759.26 733.183 2755.29 736.934 2747.35 736.934H2613.62ZM2973.07 736.934C2965.13 736.934 2961.15 733.183 2961.15 725.68C2961.15 719.06 2964.68 715.088 2971.75 713.764C2986.31 711.999 2996.02 706.262 3000.87 696.552C3006.17 686.843 3008.82 669.19 3008.82 643.592V531.714C3008.82 503.028 3005.95 484.05 3000.21 474.782C2994.92 465.514 2984.1 457.57 2967.77 450.95C2962.48 448.302 2959.83 444.551 2959.83 439.696C2959.83 434.4 2963.14 431.311 2969.76 430.428C3004.62 426.456 3034.19 420.94 3058.47 413.878C3066.85 411.672 3071.05 414.982 3071.05 423.808V643.592C3071.05 669.19 3073.47 686.843 3078.33 696.552C3083.62 706.262 3093.55 711.999 3108.12 713.764C3115.18 715.088 3118.71 719.06 3118.71 725.68C3118.71 733.183 3114.74 736.934 3106.79 736.934H2973.07ZM3030.66 359.594C3020.07 359.594 3010.58 355.622 3002.2 347.678C2994.25 339.734 2990.28 330.466 2990.28 319.874C2990.28 309.724 2994.25 300.676 3002.2 292.732C3010.58 284.788 3020.07 280.816 3030.66 280.816C3041.7 280.816 3051.19 284.788 3059.13 292.732C3067.51 300.676 3071.71 309.724 3071.71 319.874C3071.71 330.466 3067.51 339.734 3059.13 347.678C3051.19 355.622 3041.7 359.594 3030.66 359.594ZM3261.25 742.23C3237.42 742.23 3218 734.066 3203 717.736C3187.99 701.407 3180.49 680.444 3180.49 654.846V466.838C3180.49 457.57 3173.87 452.936 3160.63 452.936C3151.36 452.936 3146.73 448.744 3146.73 440.358V433.076C3146.73 430.428 3148.05 427.78 3150.7 425.132C3187.77 398.211 3211.82 371.51 3222.86 345.03C3225.06 340.617 3228.59 338.41 3233.45 338.41C3239.18 338.41 3242.05 341.941 3242.05 349.002V405.934C3242.05 415.202 3246.91 419.836 3256.62 419.836H3318.85C3322.82 419.836 3325.91 421.16 3328.11 423.808C3330.32 426.456 3331.2 429.546 3330.76 433.076L3329.44 443.668C3328.55 449.847 3325.02 452.936 3318.85 452.936H3257.28C3247.57 452.936 3242.72 457.57 3242.72 466.838L3241.39 632.338C3240.95 674.706 3257.06 695.89 3289.72 695.89C3299.43 695.89 3310.02 691.918 3321.49 683.974C3327.67 680.444 3332.53 680.223 3336.06 683.312C3340.03 686.402 3340.03 691.918 3336.06 699.862C3329.88 712.22 3319.95 722.37 3306.27 730.314C3292.59 738.258 3277.58 742.23 3261.25 742.23Z" fill="white"/>
<g clip-path="url(#clip1_2_14)">
<rect x="0.233854" y="-0.0655518" width="1000" height="1000" rx="167" fill="white"/>
<g clip-path="url(#clip2_2_14)">
<path d="M375.234 124.934C397.335 124.934 418.531 133.714 434.159 149.342C449.787 164.97 458.567 186.166 458.567 208.268V374.934C458.567 397.036 449.787 418.232 434.159 433.86C418.531 449.488 397.335 458.268 375.234 458.268H208.567C186.466 458.268 165.27 449.488 149.642 433.86C134.014 418.232 125.234 397.036 125.234 374.934V208.268C125.234 186.166 134.014 164.97 149.642 149.342C165.27 133.714 186.466 124.934 208.567 124.934H375.234Z" fill="black"/>
<path d="M791.901 124.934C814.002 124.934 835.198 133.714 850.826 149.342C866.454 164.97 875.234 186.166 875.234 208.268V374.934C875.234 397.036 866.454 418.232 850.826 433.86C835.198 449.488 814.002 458.268 791.901 458.268H625.234C603.133 458.268 581.936 449.488 566.308 433.86C550.68 418.232 541.901 397.036 541.901 374.934V208.268C541.901 186.166 550.68 164.97 566.308 149.342C581.936 133.714 603.133 124.934 625.234 124.934H791.901Z" fill="black"/>
<path d="M375.234 541.601C397.335 541.601 418.531 550.381 434.159 566.009C449.787 581.637 458.567 602.833 458.567 624.934V791.601C458.567 813.703 449.787 834.899 434.159 850.527C418.531 866.155 397.335 874.934 375.234 874.934H208.567C186.466 874.934 165.27 866.155 149.642 850.527C134.014 834.899 125.234 813.703 125.234 791.601V624.934C125.234 602.833 134.014 581.637 149.642 566.009C165.27 550.381 186.466 541.601 208.567 541.601H375.234Z" fill="black"/>
<path d="M791.901 541.601C814.002 541.601 835.198 550.381 850.826 566.009C866.454 581.637 875.234 602.833 875.234 624.934V791.601C875.234 813.703 866.454 834.899 850.826 850.527C835.198 866.155 814.002 874.934 791.901 874.934H625.234C603.133 874.934 581.936 866.155 566.308 850.527C550.68 834.899 541.901 813.703 541.901 791.601V624.934C541.901 602.833 550.68 581.637 566.308 566.009C581.936 550.381 603.133 541.601 625.234 541.601H791.901Z" fill="black"/>
</g>
</g>
</g>
<defs>
<clipPath id="clip0_2_14">
<rect width="3365" height="1000" fill="black"/>
</clipPath>
<clipPath id="clip1_2_14">
<rect x="0.233854" y="-0.0655518" width="1000" height="1000" rx="167" fill="black"/>
</clipPath>
<clipPath id="clip2_2_14">
<rect width="1000" height="1000" fill="black" transform="translate(0.233854 -0.0655518)"/>
</clipPath>
</defs>
</svg>
